<?xml version="1.0" encoding="UTF-8"?>
<!DOCTYPE svg  PUBLIC '-//W3C//DTD SVG 1.1//EN'  'http://www.w3.org/Graphics/SVG/1.1/DTD/svg11.dtd'>
<svg enable-background="new 0 0 168.5820313 38.8037109" version="1.1" viewBox="0 0 168.58 38.804" xml:space="preserve" xmlns="http://www.w3.org/2000/svg">
<path d="m28.06 12.354-1.4102-0.21191c-1.252-0.1875-2.2471-0.45703-2.2471-1.4102 0-0.96875 0.95312-1.623 2.5752-1.623 1.6934 0 3.3867 0.6543 4.2119 1.168l1.2822-2.3184c-1.4102-0.91211-3.3867-1.4385-5.5225-1.4385-3.4727 0-5.6357 1.6631-5.6357 4.3682 0 2.1934 1.6074 3.5859 4.625 4l1.4238 0.18555c1.6221 0.22656 2.3613 0.73926 2.3613 1.5078 0 1.0244-1.0674 1.666-3.1025 1.666-2.2188 0-3.5146-0.6416-4.4971-1.3945l-1.3818 2.2324c1.9932 1.4824 4.4414 1.752 5.8516 1.752 3.9277 0 6.2041-1.8359 6.2041-4.4551 0-2.334-1.7646-3.5996-4.7383-4.0283" fill="#002360"/>
<path d="m41.238 18.049c-2.293 0-4.0273-1.7949-4.0273-4.3701s1.7344-4.3682 4.0273-4.3682c1.3086 0 2.3193 0.50977 3.2734 1.4072l1.9072-2.0352c-1.21-1.4385-3.0615-2.1768-5.0967-2.1768-4.3398 0-7.1719 3.0889-7.1719 7.1729 0 4.0859 2.832 7.1748 7.1719 7.1748 2.0352 0 3.8584-0.74219 5.0967-2.1797l-1.8379-2.0488c-0.86621 0.81055-2.0342 1.4238-3.3428 1.4238" fill="#002360"/>
<path d="m55.726 6.5059c-1.3799 0-3.0605 0.41309-4.1562 1.9766v-8.4824l-2.9873 2.9883v17.508h2.9873v-7.5566c0-2.3359 1.6084-3.6016 3.5293-3.6016 1.9932 0 3.1748 1.2803 3.1748 3.5732v7.585h2.9883v-8.5684c0-3.1895-2.291-5.4219-5.5361-5.4219" fill="#002360"/>
<path d="m70.968 18.049c-2.4336 0-4.2695-1.7949-4.2695-4.3711 0-2.5742 1.8359-4.3672 4.2695-4.3672 2.4346 0 4.2842 1.793 4.2842 4.3672 0 2.5762-1.8496 4.3711-4.2842 4.3711m0-11.543c-4.2139 0-7.3311 3.0879-7.3311 7.1719 0 4.0859 3.1172 7.1758 7.3311 7.1758 4.2119 0 7.3457-3.0898 7.3457-7.1758 1e-7 -4.084-3.1338-7.1719-7.3457-7.1719" fill="#002360"/>
<path d="m87.178 18.049c-2.4346 0-4.2705-1.7949-4.2705-4.3711 0-2.5742 1.8359-4.3672 4.2705-4.3672 2.4326 0 4.2842 1.793 4.2842 4.3672 0 2.5762-1.8516 4.3711-4.2842 4.3711m0-11.543c-4.2119 0-7.3311 3.0879-7.3311 7.1719 0 4.0859 3.1191 7.1758 7.3311 7.1758s7.3447-3.0898 7.3447-7.1758c-1e-7 -4.084-3.1328-7.1719-7.3447-7.1719" fill="#002360"/>
<polygon points="97.04 2.998 97.04 20.496 100.03 20.496 100.03 0.010742" fill="#002360"/>
<path d="m111.27 19.187c-2.9297 0-5.166-2.2627-5.166-5.3799 0-3.1162 2.2363-5.3945 5.166-5.3945 1.5801 0 2.8906 0.61328 3.9297 1.6514l1.0537-1.0967c-1.1953-1.3379-2.96-2.0762-4.9395-2.0762-4.0273 0-6.8594 2.9736-6.8594 6.916 0 3.9434 2.832 6.9043 6.8594 6.9043 1.9795 0 3.7305-0.74219 4.9395-2.0801l-1.0107-1.1084c-1.0107 0.99512-2.3926 1.6641-3.9727 1.6641" fill="#002360"/>
<polygon points="118.91 1.665 118.91 20.496 120.54 20.496 120.54 0.042969" fill="#002360"/>
<path d="m130.41 19.187c-3.0029 0-5.2949-2.2627-5.2949-5.3799s2.292-5.3945 5.2949-5.3945c3.0186 0 5.3096 2.2773 5.3096 5.3945s-2.291 5.3799-5.3096 5.3799m0-12.296c-3.9707 0-6.9443 2.9746-6.9443 6.916 0 3.9434 2.9736 6.9043 6.9443 6.9043 3.9717 0 6.9736-2.9609 6.9736-6.9043 1e-7 -3.9414-3.002-6.916-6.9736-6.916" fill="#002360"/>
<path d="m150.57 7.1025v7.7158c0 2.873-1.8232 4.3691-4.3857 4.3691-2.5742 0-4.3818-1.4961-4.3818-4.3691v-7.7158h-1.624v7.8574c0 3.7998 2.7061 5.751 6.0059 5.751 3.2891 0 6.0078-1.9512 6.0078-5.751v-7.8574h-1.6221z" fill="#002360"/>
<path d="m161.85 19.187c-3.0449 0-5.2236-2.3613-5.2236-5.3799 0-3.0303 2.1494-5.3945 5.2236-5.3945 3.0322 0 5.21 2.3203 5.21 5.3945s-2.1777 5.3799-5.21 5.3799m6.7217-19.187-1.5977 1.5977v8.0801c-1.082-1.6641-2.874-2.7871-5.3086-2.7871-3.7578 0-6.6895 2.9297-6.6895 6.916s2.9316 6.9043 6.6895 6.9043c2.4346 0 4.2266-1.1113 5.3086-2.791v2.5762h1.6074v-20.496h-0.0097656z" fill="#002360"/>
<path d="m0 10.414c1.9062 1.9062 4.9971 1.9062 6.9033 0l8.8516-8.8516c-1.9053-1.9062-4.9971-1.9062-6.9023 0l-8.8525 8.8516z" fill="#F6861F"/>
<path d="m0.46094 18.951c1.9062 1.9062 4.9971 1.9062 6.9033 0l8.8516-8.8525c-1.9053-1.9053-4.9961-1.9053-6.9023 0l-8.8525 8.8525z" fill="#F6861F"/>
<path d="m11.458 18.109c0-1.3184 1.0693-2.3877 2.3867-2.3877 1.3193 0 2.3887 1.0693 2.3887 2.3877 0 1.3174-1.0693 2.3867-2.3887 2.3867-1.3174 0-2.3867-1.0693-2.3867-2.3867" fill="#F6861F"/>
<path d="m66.758 33.58c0-2.9648 2.2578-5.1514 5.3105-5.1514 1.4766 0 2.8076 0.49219 3.7041 1.4775l-0.67969 0.67969c-0.8252-0.83984-1.8379-1.2021-2.9951-1.2021-2.4463 0-4.2832 1.7939-4.2832 4.1963s1.8369 4.1973 4.2832 4.1973c1.1572 0 2.1699-0.3623 2.9951-1.2148l0.67969 0.67969c-0.89648 0.98438-2.2275 1.4902-3.7178 1.4902-3.0391 0-5.2969-2.1855-5.2969-5.1523" fill="#F6861F"/>
<rect x="77.55" y="27.909" width="1.0283" height="10.737" fill="#F6861F"/>
<path d="m88.013 31.033v7.6123h-0.98438v-1.3896c-0.53613 0.92578-1.5205 1.4609-2.7354 1.4609-1.9385 0-3.2129-1.084-3.2129-3.2695v-4.4141h1.0283v4.3125c0 1.6211 0.83887 2.4453 2.2861 2.4453 1.5918 0 2.5898-1.0273 2.5898-2.7637v-3.9941h1.0283z" fill="#F6861F"/>
<path d="m97.286 34.84c0-1.7803-1.2295-2.9668-2.8359-2.9668-1.6201 0-2.8369 1.1865-2.8369 2.9668 0 1.7793 1.2168 2.9648 2.8369 2.9648 1.6064-1e-7 2.8359-1.1855 2.8359-2.9648m1.0273 0c0 2.3008-1.6211 3.877-3.791 3.877-1.2588 0-2.3154-0.54883-2.9375-1.5762v1.5049h-0.98438v-10.737h1.0273v4.5723c0.63672-0.98438 1.6787-1.5039 2.8945-1.5039 2.1699 1e-7 3.791 1.5625 3.791 3.8633" fill="#F6861F"/>
<path d="m99.063 37.777 0.46289-0.81055c0.6084 0.47656 1.6348 0.85352 2.7061 0.85352 1.4473 0 2.041-0.49219 2.041-1.2441 0-1.9824-4.9346-0.41992-4.9346-3.4297 0-1.2441 1.0703-2.1699 3.0098-2.1699 0.98438 0 2.0547 0.27344 2.6924 0.70898l-0.44922 0.82422c-0.66602-0.46289-1.4619-0.65234-2.2432-0.65234-1.375 0-1.9834 0.53613-1.9834 1.2598 0 2.0547 4.9355 0.50586 4.9355 3.4297 0 1.3164-1.1582 2.1709-3.1396 2.1709-1.2598 0-2.4756-0.40527-3.0977-0.94043" fill="#F6861F"/>
<path d="m111.91 30.586c0 0.5918 0.21777 1.0117 1.1436 1.9531 1.4609-0.83984 1.9385-1.3457 1.9385-2.0703 0-0.75195-0.53418-1.2588-1.4756-1.2588-1.0127 0-1.6064 0.56543-1.6064 1.376m3.9502 6.1484-3.0527-3.1396c-1.6211 0.92676-2.1123 1.5635-2.1123 2.46 0 1.0996 0.9834 1.8232 2.4453 1.8232 1.0996 0 2.0264-0.37598 2.7197-1.1436m2.0127 2.0693-1.4043-1.4463c-0.85449 0.91211-2.0107 1.375-3.3857 1.375-1.9834 0-3.4014-1.043-3.4014-2.5762 0-1.2012 0.69531-2.084 2.5469-3.1543-0.98438-1.0137-1.2734-1.6211-1.2734-2.4023 0-1.2871 0.99805-2.1562 2.5615-2.1562 1.4326 0 2.3594 0.75195 2.3594 2.0117 0 1.0127-0.6084 1.7217-2.2588 2.6768l2.7793 2.8662c0.30371-0.53613 0.53516-1.1875 0.67969-1.9541l0.83984 0.25977c-0.18848 0.91211-0.49121 1.6943-0.89746 2.3311l1.4473 1.4893-0.59277 0.67969z" fill="#F6861F"/>
<polygon points="130.68 37.719 130.68 38.645 123.51 38.645 123.51 28.516 130.46 28.516 130.46 29.441 124.58 29.441 124.58 33.045 129.82 33.045 129.82 33.956 124.58 33.956 124.58 37.719" fill="#F6861F"/>
<polygon points="138.92 31.033 135.54 38.646 134.48 38.646 131.11 31.033 132.18 31.033 135.03 37.516 137.91 31.033" fill="#F6861F"/>
<path d="m140.12 34.392h5.3975c-0.12988-1.4912-1.2148-2.5342-2.7061-2.5342-1.4756 0-2.5615 1.043-2.6914 2.5342m6.3672 0.7666h-6.3672c0.11621 1.5918 1.3311 2.6475 2.9951 2.6475 0.92578 0 1.751-0.33301 2.3301-0.99902l0.5791 0.66602c-0.68066 0.81055-1.7373 1.2451-2.9375 1.2451-2.373 0-3.9941-1.6201-3.9941-3.8779s1.5781-3.8643 3.7188-3.8643c2.1416 0 3.6904 1.5771 3.6904 3.8643-1e-7 0.086914-0.014648 0.20313-0.014648 0.31836" fill="#F6861F"/>
<path d="m155.32 34.232v4.4141h-1.0283v-4.3145c0-1.6055-0.83887-2.4297-2.2861-2.4297-1.6348 0-2.6631 1.0117-2.6631 2.75v3.9941h-1.0264v-7.6133h0.9834v1.4043c0.5498-0.92578 1.5771-1.4609 2.8945-1.4609 1.8516 0 3.126 1.0703 3.126 3.2559" fill="#F6861F"/>
<path d="m161.83 38.182c-0.40527 0.36328-1.0127 0.53516-1.6064 0.53516-1.4316 0-2.2285-0.80957-2.2285-2.2129v-4.6016h-1.3594v-0.86914h1.3594v-1.6631h1.0273v1.6631h2.3154v0.86914h-2.3154v4.543c0 0.89648 0.46289 1.3887 1.3174 1.3887 0.41895 0 0.83887-0.12891 1.1289-0.38965l0.36133 0.7373z" fill="#F6861F"/>
<path d="m162.34 37.777 0.46289-0.81055c0.6084 0.47656 1.6348 0.85352 2.7061 0.85352 1.4473 0 2.041-0.49219 2.041-1.2441 0-1.9824-4.9346-0.41992-4.9346-3.4297 0-1.2441 1.0703-2.1699 3.0098-2.1699 0.9834 0 2.0547 0.27344 2.6914 0.70898l-0.44824 0.82422c-0.66602-0.46289-1.4619-0.65234-2.2432-0.65234-1.375 0-1.9834 0.53613-1.9834 1.2598 0 2.0547 4.9355 0.50586 4.9355 3.4297 0 1.3164-1.1582 2.1709-3.1406 2.1709-1.2588 0-2.4746-0.40527-3.0967-0.94043" fill="#F6861F"/>
</svg>
