<svg width="200" height="25" enable-background="new 0 0 841.7646484 104.1030273" version="1.1" viewBox="0 0 841.76 104.1" xml:space="preserve" xmlns="http://www.w3.org/2000/svg">

	<path d="m651.05 41.997c-14.994 0-26.435 11.37-26.435 26.932 0 15.562 11.44 26.861 26.435 26.861 15.064 0 26.505-11.299 26.505-26.861 0-15.562-11.44-26.932-26.505-26.932z" fill="none"/>
	<path d="m354.32 46.473c-12.151 0-21.318 8.9536-21.318 21.815 0 12.862 9.1665 21.815 21.318 21.815s21.389-8.9531 21.389-21.815c0-12.862-9.2378-21.815-21.389-21.815z" fill="none"/>
	<path d="m435.25 46.473c-12.151 0-21.318 8.9536-21.318 21.815 0 12.862 9.1665 21.815 21.318 21.815s21.389-8.9531 21.389-21.815c-1e-7 -12.862-9.2378-21.815-21.389-21.815z" fill="none"/>
	<path d="m808.15 41.997c-15.35 0-26.079 11.796-26.079 26.932 0 15.064 10.872 26.861 26.079 26.861 15.136 0 26.008-11.512 26.008-26.861 0-15.349-10.872-26.932-26.008-26.932z" fill="none"/>
	<path d="m140.09 61.68-7.0352-1.0659c-6.2534-0.92383-11.228-2.2739-11.228-7.0347 0-4.8325 4.7612-8.1011 12.862-8.1011 8.4561 0 16.913 3.2686 21.034 5.8271l6.3955-11.583c-7.0347-4.5479-16.912-7.1772-27.571-7.1772-17.338 0-28.14 8.314-28.14 21.815 0 10.943 8.0298 17.907 23.094 19.968l7.1064 0.92383c8.1006 1.1377 11.796 3.6953 11.796 7.5322 0 5.1172-5.3296 8.3145-15.491 8.3145-11.085 0-17.552-3.1973-22.455-6.9639l-6.8926 11.156c9.9482 7.3906 22.17 8.7402 29.206 8.7402 19.613 0 30.982-9.166 30.982-22.241 0-11.654-8.8115-17.979-23.663-20.11z" fill="#21325F"/>
	<path d="m205.89 46.473c6.5376 0 11.583 2.5586 16.344 7.0352l9.522-10.162c-6.04-7.1772-15.278-10.872-25.439-10.872-21.673 0-35.814 15.42-35.814 35.814 0 20.395 14.141 35.814 35.814 35.814 10.162 0 19.257-3.6953 25.439-10.872l-9.1665-10.232c-4.335 4.0498-10.162 7.1055-16.699 7.1055-11.44 0-20.11-8.9531-20.11-21.815 0-12.862 8.6694-21.815 20.11-21.815z" fill="#21325F"/>
	<path d="m278.22 32.475c-6.8931 0-15.278 2.0605-20.75 9.8774v-42.347l-14.923 14.923v87.399h14.923v-37.733c0-11.654 8.0298-17.978 17.623-17.978 9.9487 0 15.847 6.395 15.847 17.836v37.875h14.922v-42.778c0-15.917-11.44-27.074-27.642-27.074z" fill="#21325F"/>
	<path d="m354.32 32.475c-21.034 0-36.596 15.42-36.596 35.814 0 20.395 15.562 35.814 36.596 35.814s36.667-15.42 36.667-35.814c0-20.394-15.633-35.814-36.667-35.814zm0 57.629c-12.151 0-21.318-8.9531-21.318-21.815 0-12.862 9.1665-21.815 21.318-21.815s21.389 8.9536 21.389 21.815c0 12.862-9.2378 21.815-21.389 21.815z" fill="#21325F"/>
	<path d="m435.25 32.475c-21.034 0-36.596 15.42-36.596 35.814 0 20.395 15.562 35.814 36.596 35.814s36.667-15.42 36.667-35.814c0-20.394-15.633-35.814-36.667-35.814zm0 57.629c-12.151 0-21.318-8.9531-21.318-21.815 0-12.862 9.1665-21.815 21.318-21.815s21.389 8.9536 21.389 21.815c-1e-7 12.862-9.2378 21.815-21.389 21.815z" fill="#21325F"/>
	<polygon points="484.14 15.312 484.14 102.33 499.07 102.33 499.07 0.38965" fill="#21325F"/>
	<path d="m555.48 41.997c7.8877 0 14.425 3.0557 19.612 8.2432l5.2588-5.4717c-5.9697-6.6797-14.781-10.375-24.658-10.375-20.11 0-34.251 14.852-34.251 34.535s14.141 34.464 34.251 34.464c9.877 0 18.618-3.6943 24.658-10.374l-5.0459-5.543c-5.0449 4.9746-11.938 8.3145-19.825 8.3145-14.639 0-25.795-11.299-25.795-26.861 0-15.562 11.156-26.932 25.795-26.932z" fill="#21325F"/>
	<polygon points="593.64 8.3682 593.64 102.33 601.74 102.33 601.74 0.2666" fill="#21325F"/>
	<path d="m651.05 34.393c-19.826 0-34.678 14.852-34.678 34.535s14.852 34.464 34.678 34.464c19.825 0 34.819-14.78 34.819-34.464s-14.994-34.535-34.819-34.535zm0 61.396c-14.994 0-26.435-11.299-26.435-26.861 0-15.562 11.44-26.932 26.435-26.932 15.064 0 26.505 11.37 26.505 26.932 0 15.562-11.44 26.861-26.505 26.861z" fill="#21325F"/>
	<path d="m751.67 73.974c0 14.354-9.0957 21.815-21.887 21.815-12.862 0-21.887-7.4619-21.887-21.815v-38.515h-8.1006v39.225c0 18.974 13.501 28.708 29.987 28.708 16.415 0 29.987-9.7344 29.987-28.708v-39.225h-8.1006v38.515z" fill="#21325F"/>
	<path d="m833.73 7.8911v40.43c-5.4004-8.314-14.354-13.928-26.505-13.928-18.76 0-33.398 14.639-33.398 34.535 0 19.897 14.639 34.464 33.398 34.464 12.151 0 21.104-5.542 26.505-13.928v12.862h8.0303v-102.33h-0.13965l-7.8906 7.8911zm-25.581 87.898c-15.207 0-26.079-11.797-26.079-26.861 0-15.136 10.729-26.932 26.079-26.932 15.136 0 26.008 11.583 26.008 26.932 0 15.35-10.872 26.861-26.008 26.861z" fill="#21325F"/>

<path d="m0 51.991 0.018066 0.018555c9.5068 9.5068 24.922 9.5068 34.43 0l44.213-44.213-0.017578-0.018066c-9.5078-9.5078-24.923-9.5078-34.431 0l-44.213 44.212z" fill="#F4AE3F"/>
<path d="m2.3018 94.612 0.018066 0.018555c9.5073 9.5068 24.922 9.5068 34.43 0l44.213-44.214-0.016602-0.01709c-9.5078-9.5083-24.924-9.5083-34.432 0l-44.213 44.212z" fill="#F4AE3F"/>
<path d="m57.206 90.408c0-6.583 5.3369-11.919 11.92-11.919 6.582 0 11.919 5.3359 11.919 11.919s-5.3369 11.919-11.919 11.919c-6.583 1e-7 -11.92-5.3359-11.92-11.919" fill="#F4AE3F"/>
</svg>
